<svg width="44" height="49" viewBox="0 0 44 49" fill="none" xmlns="http://www.w3.org/2000/svg">
<g clip-path="url(#clip0_630_69)">
<path d="M43.5483 11.9225L22.4283 0.111294C22.1613 -0.0384002 21.8357 -0.0384002 21.5688 0.111294L0.451733 11.9225C0.173067 12.078 0 12.3716 0 12.6915V36.311C0 36.6309 0.173067 36.9244 0.451733 37.08L21.5717 48.8912C21.7067 48.9645 21.8533 49.0027 22 49.0027C22.1467 49.0027 22.2963 48.9645 22.4283 48.8912L43.5483 37.08C43.8269 36.9244 44 36.6309 44 36.311V12.6915C44 12.3716 43.8269 12.078 43.5483 11.9225ZM42.24 35.7944L22 47.1124L1.76 35.7944V13.2081L22 1.89002L42.24 13.2081V35.7944Z" fill="#3093FF"/>
<path d="M21.211 9.65961L17.1278 17.9398L7.99631 19.2665C7.66485 19.3134 7.38911 19.5483 7.28645 19.8653C7.18378 20.1852 7.26885 20.5345 7.50938 20.7693L14.1182 27.215L12.5576 36.317C12.5019 36.6457 12.6368 36.9803 12.9067 37.177C13.0592 37.2885 13.2411 37.3443 13.423 37.3443C13.5638 37.3443 13.7046 37.312 13.8336 37.2445L22.003 32.9474L30.1723 37.2445C30.4686 37.4001 30.8294 37.3736 31.0992 37.177C31.3691 36.9803 31.507 36.6457 31.4483 36.317L29.8878 27.215L36.4966 20.7693C36.7371 20.5345 36.8222 20.1852 36.7195 19.8653C36.6168 19.5453 36.3411 19.3134 36.0096 19.2665L26.8782 17.9398L22.795 9.65961C22.6454 9.36022 22.3403 9.16943 22.0059 9.16943C21.6715 9.16943 21.3664 9.36022 21.2168 9.65961H21.211ZM25.4995 19.1344C25.6286 19.3927 25.875 19.5747 26.1624 19.6158L33.9886 20.7546L28.3272 26.2786C28.119 26.4812 28.0251 26.7717 28.075 27.0594L29.4126 34.8582L22.4136 31.1775C22.1555 31.0424 21.8504 31.0424 21.5952 31.1775L14.5963 34.8582L15.9339 27.0594C15.9838 26.7747 15.887 26.4812 15.6816 26.2786L10.0203 20.7546L17.8464 19.6158C18.1339 19.5747 18.3803 19.3927 18.5094 19.1344L22.0088 12.0371L25.5083 19.1344H25.4995Z" fill="#3093FF"/>
</g>
<defs>
<clipPath id="clip0_630_69">
<rect width="44" height="49" fill="white"/>
</clipPath>
</defs>
</svg>
