<svg width="49" height="50" viewBox="0 0 49 50" fill="none" xmlns="http://www.w3.org/2000/svg">
<g clip-path="url(#clip0_630_32)">
<path d="M48.125 0H0.875C0.390833 0 0 0.39881 0 0.892857V38.3929C0 38.8869 0.390833 39.2857 0.875 39.2857H19.8042L17.7042 42.8571H16.1C15.7413 42.8571 15.4204 43.0804 15.2862 43.4196L13.1862 48.7768C13.0783 49.0506 13.1104 49.3631 13.2737 49.6101C13.4371 49.8542 13.7083 50.003 13.9971 50.003H34.9971C35.2887 50.003 35.56 49.8571 35.7204 49.6101C35.8838 49.3661 35.9158 49.0536 35.8079 48.7768L33.7079 43.4196C33.5737 43.0804 33.2529 42.8571 32.8942 42.8571H31.29L29.19 39.2857H48.1192C48.6033 39.2857 48.9942 38.8869 48.9942 38.3929V0.892857C48.9942 0.39881 48.6033 0 48.1192 0H48.125ZM47.25 1.78571V32.1429H1.75V1.78571H47.25ZM33.7079 48.2143H15.2921L16.6921 44.6429H32.3079L33.7079 48.2143ZM29.2542 42.8571H19.7458L21.8458 39.2857H27.1542L29.2542 42.8571ZM1.75 37.5V33.9286H47.25V37.5H1.75Z" fill="#14A571"/>
<path d="M8.75003 28.5712H13.7113C14.1954 28.5712 14.5863 28.1724 14.5863 27.6784V22.6159C14.5863 22.1218 14.1954 21.723 13.7113 21.723H11.8884C12.1304 15.0891 16.3771 11.3867 21.1459 10.226V11.4581C21.1459 11.9522 21.5367 12.351 22.0209 12.351H26.9821C27.4663 12.351 27.8571 11.9522 27.8571 11.4581V10.2171C29.8784 10.7051 31.7159 11.6307 33.2121 12.9492C35.6417 15.0921 36.9804 18.1159 37.1146 21.72H35.2917C34.8075 21.72 34.4167 22.1188 34.4167 22.6129V27.6754C34.4167 28.1694 34.8075 28.5682 35.2917 28.5682H40.2529C40.7371 28.5682 41.1279 28.1694 41.1279 27.6754V22.6129C41.1279 22.1188 40.7371 21.72 40.2529 21.72H38.8646C38.7275 17.5772 37.1788 14.0861 34.3554 11.598C33.5738 10.9105 32.7134 10.3153 31.7888 9.81824H34.5771C35.0088 11.1992 36.2775 12.2022 37.7738 12.2022C39.6229 12.2022 41.1279 10.6665 41.1279 8.77955C41.1279 6.89265 39.6229 5.35693 37.7738 5.35693C36.1754 5.35693 34.8367 6.50574 34.5013 8.03551H27.86V6.3986C27.86 5.90455 27.4692 5.50574 26.985 5.50574H22.0238C21.5396 5.50574 21.1488 5.90455 21.1488 6.3986V8.03551H14.5075C14.1721 6.50574 12.8334 5.35693 11.235 5.35693C9.38586 5.35693 7.88086 6.89265 7.88086 8.77955C7.88086 10.6665 9.38586 12.2022 11.235 12.2022C12.7284 12.2022 13.9971 11.1992 14.4317 9.81824H17.2171C16.2925 10.3153 15.4321 10.9105 14.6534 11.598C11.83 14.0861 10.2813 17.5801 10.1442 21.72H8.75586C8.27169 21.72 7.88086 22.1188 7.88086 22.6129V27.6754C7.88086 28.1694 8.27169 28.5682 8.75586 28.5682L8.75003 28.5712ZM39.375 26.7855H36.1638V23.5087H39.375V26.7855ZM37.7709 7.14265C38.6575 7.14265 39.375 7.87777 39.375 8.77955C39.375 9.68134 38.6546 10.4165 37.7709 10.4165C36.8871 10.4165 36.1667 9.68134 36.1667 8.77955C36.1667 7.87777 36.8871 7.14265 37.7709 7.14265ZM22.8959 7.29146H26.1071V10.5682H22.8959V7.29146ZM11.2292 10.4194C10.3425 10.4194 9.62503 9.68431 9.62503 8.78253C9.62503 7.88074 10.3454 7.14562 11.2292 7.14562C12.1129 7.14562 12.8334 7.88074 12.8334 8.78253C12.8334 9.68431 12.1129 10.4194 11.2292 10.4194ZM9.62503 23.5087H12.8363V26.7855H9.62503V23.5087Z" fill="#14A571"/>
</g>
<defs>
<clipPath id="clip0_630_32">
<rect width="49" height="50" fill="white"/>
</clipPath>
</defs>
</svg>
