<svg width="120" height="68" viewBox="0 0 120 68" fill="none" xmlns="http://www.w3.org/2000/svg">
<g clip-path="url(#clip0_640_2)">
<path d="M41.3507 0.70752H35.3486V14.7042H41.3507V0.70752Z" fill="#DE2A4E"/>
<path d="M77.8335 14.9538C81.8281 14.9538 85.0664 11.7056 85.0664 7.69882C85.0664 3.69201 81.8281 0.443848 77.8335 0.443848C73.8389 0.443848 70.6006 3.69201 70.6006 7.69882C70.6006 11.7056 73.8389 14.9538 77.8335 14.9538Z" fill="#3093FF"/>
<path d="M61.9018 7.69887V15.3977L55.2912 11.5552L48.6807 7.69887L55.2912 3.85637L61.9018 0V7.69887Z" fill="#14A571"/>
<path d="M4.0106 44.0293H11.5478V47.5944H0V27.6328H4.0106V44.0432V44.0293Z" fill="white"/>
<path d="M24.6723 34.0555H28.4617V47.5945H24.6723V45.6524C23.7734 47.0396 22.0447 47.9413 20.2192 47.9413C16.4852 47.9413 13.7192 45.042 13.7192 40.8389C13.7192 36.6357 16.4299 33.7087 20.3022 33.7087C22.0309 33.7087 23.7734 34.4578 24.6585 35.8589V34.0555H24.6723ZM24.5617 40.8389C24.5617 38.7858 22.916 37.2461 21.0351 37.2461C19.1543 37.2461 17.5915 38.8691 17.5915 40.8389C17.5915 42.8087 19.0713 44.4039 21.0628 44.4039C23.0543 44.4039 24.5617 42.7809 24.5617 40.8389Z" fill="white"/>
<path d="M42.208 34.0554H45.9974V47.5943H42.208V45.3887C41.6272 47.1504 39.4974 47.9411 38.1698 47.9411C34.6432 47.9411 32.79 45.5691 32.8177 41.5046V34.0554H36.607V41.2965C36.607 43.4189 37.8793 44.4038 39.1793 44.4038C40.4793 44.4038 42.208 43.6547 42.208 41.2133V34.0554Z" fill="white"/>
<path d="M60.3942 34.1526L59.523 37.7731C58.7209 37.3431 58.0432 37.2738 57.5868 37.2738C55.6507 37.2738 54.323 39.1048 54.323 42.9473V47.5805H50.5337V34.0416H54.2954V36.9408C55.0422 34.6797 56.5773 33.6948 58.2506 33.6948C58.9698 33.6948 59.7857 33.8058 60.3942 34.1249V34.1526Z" fill="white"/>
<path d="M72.8686 34.0555H76.658V47.5945H72.8686V45.6524C71.9697 47.0396 70.241 47.9413 68.4155 47.9413C64.6815 47.9413 61.9155 45.042 61.9155 40.8389C61.9155 36.6357 64.6261 33.7087 68.4984 33.7087C70.2272 33.7087 71.9697 34.4578 72.8548 35.8589V34.0555H72.8686ZM72.758 40.8389C72.758 38.7858 71.1123 37.2461 69.2314 37.2461C67.3506 37.2461 65.7878 38.8691 65.7878 40.8389C65.7878 42.8087 67.2676 44.4039 69.2591 44.4039C71.2506 44.4039 72.758 42.7809 72.758 40.8389Z" fill="white"/>
<path d="M104.94 47.5944H99.7396L93.3226 39.5626V47.5944H89.312V27.6328H93.3226V35.8033L98.8683 27.6328H103.695L96.7939 37.5512L104.94 47.6083V47.5944Z" fill="white"/>
<path d="M105.493 40.8389C105.493 36.5525 108.909 33.7087 112.739 33.7087C116.57 33.7087 119.986 36.5525 119.986 40.8389C119.986 45.1253 116.57 47.9413 112.739 47.9413C108.909 47.9413 105.493 45.0975 105.493 40.8389ZM116.155 40.8389C116.155 38.7165 114.62 37.2461 112.739 37.2461C110.859 37.2461 109.323 38.7303 109.323 40.8389C109.323 42.9474 110.859 44.4039 112.739 44.4039C114.62 44.4039 116.155 42.9196 116.155 40.8389Z" fill="white"/>
<path d="M14.8667 67.8334V58.0676H18.5316C21.2837 58.0676 22.8464 60.19 22.8464 62.9783C22.8464 65.7665 21.2975 67.8334 18.5316 67.8334H14.8667ZM15.7933 66.8901H18.5177C20.7581 66.8901 21.8922 65.2116 21.8922 62.9644C21.8922 60.7171 20.7581 58.997 18.5177 58.997H15.7933V66.8901Z" fill="white"/>
<path d="M39.0961 58.0678V58.9972H34.477V62.5623H38.5153V63.4917H34.477V66.8764H39.2483V67.8058H33.5366V58.04H39.0961V58.0678Z" fill="white"/>
<path d="M52.2761 67.0429C53.742 67.0429 54.5026 66.2106 54.6686 65.4476C54.8484 64.2408 53.9218 63.6304 52.8154 63.3807L51.5016 63.0894C49.4825 62.6316 49.2059 61.4525 49.2059 60.6341C49.2059 59.0527 50.6995 57.9707 52.2622 57.9707C53.9909 57.9707 55.3186 59.0666 55.3186 60.7589H54.392C54.392 59.6215 53.4792 58.9001 52.2761 58.9001C51.1973 58.9001 50.1601 59.5937 50.1601 60.6341C50.1601 61.1474 50.3399 61.8687 51.709 62.1739L53.0367 62.4652C54.5856 62.8258 55.8718 63.7414 55.5952 65.6141C55.3739 66.7516 54.2952 67.9862 52.2899 67.9862C50.2846 67.9862 49.1367 66.4741 49.1367 65.0315H50.0633C50.0633 66.0164 50.9207 67.0429 52.2761 67.0429Z" fill="white"/>
<path d="M67.1707 67.8334H66.2441V58.0676H67.1707V67.8334Z" fill="white"/>
<path d="M87.2373 63.0338C87.2373 66.3492 85.481 67.9722 82.715 67.9722C79.9491 67.9722 77.8193 65.7388 77.8193 62.9645C77.8193 60.1901 79.9491 57.9429 82.715 57.9429C83.9044 57.9429 84.9693 58.3729 85.8267 59.0804L85.1629 59.7462C84.4991 59.2052 83.6555 58.8862 82.715 58.8862C80.4746 58.8862 78.7598 60.7172 78.7598 62.9645C78.7598 65.2117 80.4746 67.0289 82.715 67.0289C84.8171 67.0289 86.0756 65.8498 86.1863 63.9078H83.3512V63.0338H87.2373Z" fill="white"/>
<path d="M103.529 67.8334L98.5638 59.649V67.8334H97.6372V58.0676H98.6468L103.57 66.1965V58.0676H104.497V67.8334H103.542H103.529Z" fill="white"/>
</g>
<defs>
<clipPath id="clip0_640_2">
<rect width="120" height="67.972" fill="white"/>
</clipPath>
</defs>
</svg>
