<?xml version="1.0" encoding="UTF-8" standalone="no"?>
<svg
   width="482.64801"
   height="328.70001"
   viewBox="0 0 482.64801 328.70001"
   fill="none"
   version="1.1"
   id="svg10"
   sodipodi:docname="hero.svg"
   inkscape:version="1.1.2 (0a00cf5339, 2022-02-04)"
   xmlns:inkscape="http://www.inkscape.org/namespaces/inkscape"
   xmlns:sodipodi="http://sodipodi.sourceforge.net/DTD/sodipodi-0.dtd"
   xmlns="http://www.w3.org/2000/svg"
   xmlns:svg="http://www.w3.org/2000/svg">
  <defs
     id="defs14" />
  <sodipodi:namedview
     id="namedview12"
     pagecolor="#ffffff"
     bordercolor="#666666"
     borderopacity="1.0"
     inkscape:pageshadow="2"
     inkscape:pageopacity="0.0"
     inkscape:pagecheckerboard="0"
     showgrid="false"
     fit-margin-top="0"
     fit-margin-left="0"
     fit-margin-right="0"
     fit-margin-bottom="0"
     inkscape:zoom="0.68179724"
     inkscape:cx="374.74484"
     inkscape:cy="-37.401149"
     inkscape:window-width="1920"
     inkscape:window-height="962"
     inkscape:window-x="0"
     inkscape:window-y="27"
     inkscape:window-maximized="1"
     inkscape:current-layer="svg10" />
  <circle
     cx="223.347"
     cy="45"
     r="45"
     fill="#3093ff"
     id="circle2" />
  <rect
     x="5.3470001"
     y="189"
     width="47"
     height="133"
     fill="#c1213d"
     id="rect4" />
  <path
     d="M 16.9,105 H 0 V 36.1 H 44.3 V 50.7 H 16.9 V 63.9 H 38.6 V 78.3 H 16.9 Z M 68.653,89.7 V 105 h -15.9 V 58.4 h 15.1 v 11.5 c 2.4,-8.9 8.7,-12.7 14.7,-12.7 2,0 4.3,0.1 6.9,1.3 l -3.9,15 c -3.3,-1.2 -5.8,-1.2 -7.2,-1.2 -6,0 -9.7,3.4 -9.7,17.4 z M 143.448,81 c 0,1.2 -0.2,3.8 -0.3,5.1 h -33.4 c 0.6,4.4 5.6,7.1 10.7,7.1 2.6,0 6.2,-0.7 8.9,-3.9 1.9,1.5 8.4,6 11,7.9 -4.9,6.5 -13.7,8.7 -21.1,8.7 -13.4,0 -24.8,-9.8 -24.8,-24.5 0,-14.7 11.4,-24.2 24.8,-24.2 13.3,0 24.2,9.1 24.2,23.8 z m -33.7,-3.8 h 18.6 c -1.5,-6 -6.9,-6.9 -9.3,-6.9 -2.4,0 -8.1,0.9 -9.3,6.9 z m 91.18,3.8 c 0,1.2 -0.2,3.8 -0.3,5.1 h -33.4 c 0.6,4.4 5.6,7.1 10.7,7.1 2.6,0 6.2,-0.7 8.9,-3.9 1.9,1.5 8.4,6 11,7.9 -4.9,6.5 -13.7,8.7 -21.1,8.7 -13.4,0 -24.8,-9.8 -24.8,-24.5 0,-14.7 11.4,-24.2 24.8,-24.2 13.3,0 24.2,9.1 24.2,23.8 z m -33.7,-3.8 h 18.6 c -1.5,-6 -6.9,-6.9 -9.3,-6.9 -2.4,0 -8.1,0.9 -9.3,6.9 z M 212.109,105 V 33.9 h 15.9 V 105 Z m 63.329,-41.6 v -5 h 15.9 V 105 h -15.9 v -5.3 c -2.9,4.1 -7.8,6.2 -12.9,6.2 -11.5,0 -22.7,-9.2 -22.7,-24.3 0,-15.1 11.2,-24.4 22.7,-24.4 4.7,0 10,2.1 12.9,6.2 z m -19.4,18.3 c 0,5.3 4.4,9.7 9.7,9.7 5.3,0 9.7,-4.4 9.7,-9.7 0,-5.3 -4.4,-9.7 -9.7,-9.7 -5.3,0 -9.7,4.4 -9.7,9.7 z m 65.74,-1.2 V 105 h -15.9 V 58.4 h 15.9 v 7.3 c 1.6,-5.9 9,-8.5 13.1,-8.5 12.5,0 18.6,8.5 18.6,23 V 105 h -15.9 V 80.7 c 0,-6.2 -4.3,-8.1 -7.6,-8.1 -3.6,0 -8.2,1.9 -8.2,7.9 z m 76.085,6.5 13.3,7.4 c -4.6,6.9 -11.6,11.5 -20.6,11.5 -13.9,0 -25.9,-9.5 -25.9,-24.3 0,-14.8 12,-24.4 25.9,-24.4 9,0 15.9,4.6 20.5,11.5 l -13,7.8 c -1.7,-2.8 -4.7,-4.6 -8.2,-4.6 -5.3,0 -9.7,4.4 -9.7,9.7 0,5.3 4.4,9.7 9.7,9.7 3.3,0 6.2,-1.7 8,-4.3 z m 70.35,-6 c 0,1.2 -0.2,3.8 -0.3,5.1 h -33.4 c 0.6,4.4 5.6,7.1 10.7,7.1 2.6,0 6.2,-0.7 8.9,-3.9 1.9,1.5 8.4,6 11,7.9 -4.9,6.5 -13.7,8.7 -21.1,8.7 -13.4,0 -24.8,-9.8 -24.8,-24.5 0,-14.7 11.4,-24.2 24.8,-24.2 13.3,0 24.2,9.1 24.2,23.8 z m -33.7,-3.8 h 18.6 c -1.5,-6 -6.9,-6.9 -9.3,-6.9 -2.4,0 -8.1,0.9 -9.3,6.9 z m -333.62,70.2 -12.4,10.5 c -3.6,-4.4 -8.7,-7.2 -14.5,-7.2 -10.5,0 -18.6,8.9 -18.6,19.9 0,10.8 8.1,20.1 18.6,20.1 8.1,0 14.3,-2.8 15.8,-9.2 h -19.3 v -13.4 h 37.5 c 0,26.4 -14.2,37.8 -34,37.8 -19.9,0 -35.5,-15.9 -35.5,-35.3 0,-19.6 15.6,-35.4 35.5,-35.4 11.2,0 20.9,4.8 26.9,12.2 z m 33.786,42.3 V 205 h -15.9 v -46.6 h 15.1 v 11.5 c 2.4,-8.9 8.7,-12.7 14.7,-12.7 2,0 4.3,0.1 6.9,1.3 l -3.9,15 c -3.3,-1.2 -5.8,-1.2 -7.2,-1.2 -6,0 -9.7,3.4 -9.7,17.4 z m 61.394,-26.3 v -5 h 15.9 V 205 h -15.9 v -5.3 c -2.9,4.1 -7.8,6.2 -12.9,6.2 -11.5,0 -22.7,-9.2 -22.7,-24.3 0,-15.1 11.2,-24.4 22.7,-24.4 4.7,0 10,2.1 12.9,6.2 z m -19.4,18.3 c 0,5.3 4.4,9.7 9.7,9.7 5.3,0 9.7,-4.4 9.7,-9.7 0,-5.3 -4.4,-9.7 -9.7,-9.7 -5.3,0 -9.7,4.4 -9.7,9.7 z m 65.74,19 V 228 h -15.9 v -69.6 h 15 v 6.7 c 2.7,-5.5 8.7,-7.9 13.8,-7.9 11.5,0 22.7,9.2 22.7,24.3 0,15.1 -11.2,24.4 -22.7,24.4 -5.6,0 -9.9,-1.9 -12.9,-5.2 z m 19.4,-19.3 c 0,-5.3 -4.4,-9.7 -9.7,-9.7 -5.3,0 -9.7,4.7 -9.7,10 0,5.3 4.4,9.4 9.7,9.4 5.3,0 9.7,-4.4 9.7,-9.7 z m 44.038,-0.9 V 205 h -15.9 v -71.1 h 15.9 v 31.8 c 1.6,-5.9 9,-8.5 13.1,-8.5 12.5,0 18.6,8.5 18.6,23 V 205 h -15.9 v -24.3 c 0,-5.5 -4.3,-8.1 -7.6,-8.1 -3.6,0 -8.2,2 -8.2,7.9 z m 45.584,-22.1 h 15.9 V 205 h -15.9 z m -1.7,-15.5 c 0,5 4.4,9.1 9.6,9.1 5.3,0 9.5,-4.1 9.5,-9.1 0,-5.1 -4.2,-9 -9.5,-9 -5.2,0 -9.6,3.9 -9.6,9 z m 62.63,44.1 13.3,7.4 c -4.6,6.9 -11.6,11.5 -20.6,11.5 -13.9,0 -25.9,-9.5 -25.9,-24.3 0,-14.8 12,-24.4 25.9,-24.4 9,0 15.9,4.6 20.5,11.5 l -13,7.8 c -1.7,-2.8 -4.7,-4.6 -8.2,-4.6 -5.3,0 -9.7,4.4 -9.7,9.7 0,5.3 4.4,9.7 9.7,9.7 3.3,0 6.2,-1.7 8,-4.3 z M 39.271,251 v 39.1 h 10.5 c 9.7,0 14.6,-9.3 14.6,-19.4 0,-10.2 -4.9,-19.7 -14.6,-19.7 z m -16.8,54 v -68.9 h 27.3 c 19.9,0 31.3,15 31.3,34.6 0,19.5 -11.4,34.3 -31.3,34.3 z m 117.022,-24 c 0,1.2 -0.2,3.8 -0.3,5.1 h -33.4 c 0.6,4.4 5.6,7.1 10.7,7.1 2.6,0 6.2,-0.7 8.9,-3.9 1.9,1.5 8.4,6 11,7.9 -4.9,6.5 -13.7,8.7 -21.1,8.7 -13.4,0 -24.8,-9.8 -24.8,-24.5 0,-14.7 11.4,-24.2 24.8,-24.2 13.3,0 24.2,9.1 24.2,23.8 z m -33.7,-3.8 h 18.6 c -1.5,-6 -6.9,-6.9 -9.3,-6.9 -2.4,0 -8.1,0.9 -9.3,6.9 z m 63.28,11.2 -5.9,-1.6 c -14.6,-4 -14.4,-12.3 -14.4,-15.7 0,-7 8.6,-13.9 19,-13.9 9.8,0 20.5,4 20.4,16.1 h -14.9 c 0,-2.9 -1.7,-4.2 -4.7,-4.2 -2,0 -3.9,0.8 -3.9,2.6 0,1.2 0.6,2.3 3.5,3 l 8.3,2.3 c 12,3.2 13,11.1 13,14.1 0,10.3 -11.2,14.8 -21.1,14.8 -9.9,0 -20.3,-5.8 -20.3,-16.5 h 14.9 c 0,2 1.5,4.8 5.4,4.8 2.6,0 4.9,-1.2 4.9,-3.1 0,-1.4 -0.8,-1.8 -4.2,-2.7 z m 32.245,-30 h 15.9 V 305 h -15.9 z m -1.7,-15.5 c 0,5 4.4,9.1 9.6,9.1 5.3,0 9.5,-4.1 9.5,-9.1 0,-5.1 -4.2,-9 -9.5,-9 -5.2,0 -9.6,3.9 -9.6,9 z m 45.629,38.8 c 0,5.3 4.4,9.7 9.7,9.7 5.3,0 9.7,-4.4 9.7,-9.7 0,-5.3 -4.4,-9.7 -9.7,-9.7 -5.3,0 -9.7,4.4 -9.7,9.7 z m -15.2,31.7 13.4,-5.4 c 1.5,3.6 5.4,6.2 10.3,6.2 7.8,0 12.3,-5.1 12.3,-15 -2.2,3.9 -7.2,6.7 -14.3,6.7 -11.5,0 -22.7,-9.2 -22.7,-24.3 0,-15.1 11.2,-24.4 22.7,-24.4 4.7,0 10,2.1 12.9,6.2 v -5 h 15.9 v 40.7 c 0,19.4 -9.7,29.6 -26.8,29.6 -11,0 -20.1,-6.4 -23.7,-15.3 z m 80.94,-32.9 V 305 h -15.9 v -46.6 h 15.9 v 7.3 c 1.6,-5.9 9,-8.5 13.1,-8.5 12.5,0 18.6,8.5 18.6,23 V 305 h -15.9 v -24.3 c 0,-6.2 -4.3,-8.1 -7.6,-8.1 -3.6,0 -8.2,1.9 -8.2,7.9 z m 91.885,0.5 c 0,1.2 -0.2,3.8 -0.3,5.1 h -33.4 c 0.6,4.4 5.6,7.1 10.7,7.1 2.6,0 6.2,-0.7 8.9,-3.9 1.9,1.5 8.4,6 11,7.9 -4.9,6.5 -13.7,8.7 -21.1,8.7 -13.4,0 -24.8,-9.8 -24.8,-24.5 0,-14.7 11.4,-24.2 24.8,-24.2 13.3,0 24.2,9.1 24.2,23.8 z m -33.7,-3.8 h 18.6 c -1.5,-6 -6.9,-6.9 -9.3,-6.9 -2.4,0 -8.1,0.9 -9.3,6.9 z m 60.78,12.5 V 305 h -15.9 v -46.6 h 15.1 v 11.5 c 2.4,-8.9 8.7,-12.7 14.7,-12.7 2,0 4.3,0.1 6.9,1.3 l -3.9,15 c -3.3,-1.2 -5.8,-1.2 -7.2,-1.2 -6,0 -9.7,3.4 -9.7,17.4 z"
     fill="#ffffff"
     id="path6" />
  <path
     d="m 439.347,156 43.301,75 h -86.602 z"
     fill="#14a571"
     id="path8" />
</svg>
