<svg width="42" height="49" viewBox="0 0 42 49" fill="none" xmlns="http://www.w3.org/2000/svg">
<g clip-path="url(#clip0_630_62)">
<path d="M41.16 7.47414H34.44V0.849447C34.44 0.802385 34.44 0.755323 34.4316 0.711029C34.4176 0.614136 34.3868 0.52278 34.342 0.439729C34.2804 0.326227 34.1964 0.232102 34.0956 0.160125C34.0004 0.0909159 33.8884 0.0410854 33.768 0.0161702C33.7064 0.00509671 33.6448 -0.00320837 33.5804 -0.000440013H0.84C0.3752 -0.000440013 0 0.373289 0 0.830068V40.6945C0 41.154 0.3752 41.525 0.84 41.525H7.56V48.1691C7.56 48.6286 7.9352 48.9996 8.4 48.9996H41.16C41.6248 48.9996 42 48.6286 42 48.1691V8.30464C42 7.8451 41.6248 7.47414 41.16 7.47414ZM32.76 7.47414H14.1232L32.76 1.94572V7.47414ZM1.68 39.864V1.66058H27.8768L8.1592 7.51012C8.1452 7.51566 8.1312 7.5212 8.1172 7.52674C8.092 7.53504 8.0696 7.54335 8.0444 7.55442C8.0192 7.56549 7.994 7.57933 7.9716 7.59318C7.952 7.60425 7.9324 7.61809 7.9128 7.62916C7.8876 7.64577 7.8652 7.66515 7.8428 7.68453C7.826 7.69837 7.8092 7.71222 7.7952 7.72883C7.7728 7.75097 7.7532 7.77589 7.7364 7.8008C7.7252 7.81741 7.7112 7.83125 7.7 7.84787C7.6804 7.87832 7.6636 7.91154 7.6468 7.94476C7.6412 7.9586 7.6328 7.96967 7.6272 7.98351C7.6076 8.03058 7.5908 8.08041 7.5796 8.13024C7.5796 8.14408 7.5768 8.15792 7.574 8.16899C7.5684 8.20775 7.5628 8.24651 7.5628 8.28803C7.5628 8.29357 7.5628 8.29634 7.5628 8.30188V39.8612H1.68V39.864ZM40.32 47.3385H9.24V9.13515H40.32V47.3385Z" fill="#C1213D"/>
<path d="M12.6001 13.288V23.2541C12.6001 23.7137 12.9753 24.0846 13.4401 24.0846H36.1201C36.5849 24.0846 36.9601 23.7137 36.9601 23.2541V13.288C36.9601 12.8285 36.5849 12.4575 36.1201 12.4575H13.4401C12.9753 12.4575 12.6001 12.8285 12.6001 13.288ZM14.2801 14.1185H35.2801V22.4236H14.2801V14.1185Z" fill="#C1213D"/>
<path d="M23.5201 27.4067H13.4401C12.9753 27.4067 12.6001 27.7777 12.6001 28.2372V43.1864C12.6001 43.6459 12.9753 44.0169 13.4401 44.0169H23.5201C23.9849 44.0169 24.3601 43.6459 24.3601 43.1864V28.2372C24.3601 27.7777 23.9849 27.4067 23.5201 27.4067ZM22.6801 42.3559H14.2801V29.0678H22.6801V42.3559Z" fill="#C1213D"/>
<path d="M36.1202 29.8984H28.5602C28.0954 29.8984 27.7202 30.2694 27.7202 30.7289C27.7202 31.1885 28.0954 31.5595 28.5602 31.5595H36.1202C36.585 31.5595 36.9602 31.1885 36.9602 30.7289C36.9602 30.2694 36.585 29.8984 36.1202 29.8984Z" fill="#C1213D"/>
<path d="M36.1202 34.8813H28.5602C28.0954 34.8813 27.7202 35.2523 27.7202 35.7119C27.7202 36.1714 28.0954 36.5424 28.5602 36.5424H36.1202C36.585 36.5424 36.9602 36.1714 36.9602 35.7119C36.9602 35.2523 36.585 34.8813 36.1202 34.8813Z" fill="#C1213D"/>
<path d="M36.1202 39.8643H28.5602C28.0954 39.8643 27.7202 40.2352 27.7202 40.6948C27.7202 41.1543 28.0954 41.5253 28.5602 41.5253H36.1202C36.585 41.5253 36.9602 41.1543 36.9602 40.6948C36.9602 40.2352 36.585 39.8643 36.1202 39.8643Z" fill="#C1213D"/>
</g>
<defs>
<clipPath id="clip0_630_62">
<rect width="42" height="49" fill="white"/>
</clipPath>
</defs>
</svg>
