<svg width="47" height="50" viewBox="0 0 47 50" fill="none" xmlns="http://www.w3.org/2000/svg">
<g clip-path="url(#clip0_630_72)">
<path d="M46.9972 31.3249C46.9972 31.2938 46.9916 31.2627 46.9888 31.2345C46.986 31.209 46.9804 31.1836 46.9748 31.1582C46.9692 31.1299 46.958 31.1045 46.9496 31.0791C46.9413 31.0537 46.9301 31.0254 46.9189 31.0028C46.9077 30.9802 46.8965 30.9576 46.8825 30.935C46.8685 30.9096 46.8517 30.8842 46.8321 30.8588C46.8265 30.8503 46.821 30.839 46.8154 30.8305C46.807 30.8192 46.7958 30.8107 46.7846 30.7994C46.765 30.7768 46.7454 30.7542 46.723 30.7345C46.7035 30.7175 46.6839 30.7006 46.6615 30.6836C46.6391 30.6667 46.6167 30.6525 46.5943 30.6356C46.572 30.6215 46.5468 30.6073 46.5244 30.596C46.4992 30.5847 46.474 30.5734 46.4489 30.565C46.4237 30.5565 46.3985 30.548 46.3705 30.5395C46.3454 30.5339 46.3174 30.5282 46.2922 30.5226C46.2642 30.517 46.2335 30.5141 46.2055 30.5141C46.1915 30.5141 46.1775 30.5085 46.1607 30.5085H41.9643V0.847458C41.9643 0.378531 41.5894 0 41.125 0H0.839286C0.374881 0 0 0.378531 0 0.847458V44.0678C0 44.5367 0.374881 44.9153 0.839286 44.9153H18.4643C18.6182 44.9153 18.7608 44.8701 18.8839 44.7966V49.1525C18.8839 49.6215 19.2588 50 19.7232 50H46.1607C46.6251 50 47 49.6215 47 49.1525V31.3559C47 31.3559 47 31.3333 46.9972 31.3249ZM43.7687 32.2034L32.942 40.9492L22.1152 32.2034H43.7687ZM40.2857 1.69492V7.62712H1.67857V1.69492H40.2857ZM18.4643 43.2203H1.67857V9.32203H40.2857V30.5085H19.7232C19.7064 30.5085 19.6924 30.5113 19.6757 30.5141C19.6477 30.5141 19.6197 30.517 19.5945 30.5226C19.5665 30.5282 19.5386 30.5339 19.5106 30.5395C19.4854 30.5452 19.463 30.5537 19.4407 30.5621C19.4127 30.5734 19.3847 30.5847 19.3595 30.596C19.3371 30.6073 19.3148 30.6186 19.2952 30.6328C19.27 30.6469 19.2448 30.6638 19.2224 30.6836C19.2029 30.6977 19.1833 30.7147 19.1637 30.7316C19.1413 30.7514 19.1189 30.774 19.0993 30.7966C19.091 30.8079 19.0798 30.8164 19.0686 30.8277C19.063 30.8362 19.0574 30.8475 19.0518 30.8559C19.035 30.8814 19.0182 30.9068 19.0014 30.9322C18.9874 30.9548 18.9762 30.9774 18.9651 31C18.9539 31.0254 18.9455 31.0508 18.9343 31.0763C18.9259 31.1017 18.9175 31.1299 18.9091 31.1554C18.9035 31.1808 18.9007 31.2062 18.8951 31.2316C18.8895 31.2627 18.8867 31.291 18.8867 31.322C18.8867 31.3333 18.8839 31.3418 18.8839 31.3531V43.3362C18.7608 43.2627 18.6182 43.2175 18.4643 43.2175V43.2203ZM20.5625 48.3051V33.1186L32.4188 42.6949C32.5727 42.8192 32.7573 42.8814 32.942 42.8814C33.1266 42.8814 33.314 42.8192 33.4651 42.6949L45.3214 33.1186V48.3051H20.5625Z" fill="#C1213D"/>
<path d="M36.9285 21.1865V13.5594C36.9285 13.0904 36.5536 12.7119 36.0892 12.7119H5.87493C5.41053 12.7119 5.03564 13.0904 5.03564 13.5594V21.1865C5.03564 21.6554 5.41053 22.0339 5.87493 22.0339H36.0892C36.5536 22.0339 36.9285 21.6554 36.9285 21.1865ZM35.2499 20.339H6.71422V14.4068H35.2499V20.339Z" fill="#C1213D"/>
<path d="M4.61586 5.93202C5.31115 5.93202 5.87479 5.36289 5.87479 4.66083C5.87479 3.95878 5.31115 3.38965 4.61586 3.38965C3.92058 3.38965 3.35693 3.95878 3.35693 4.66083C3.35693 5.36289 3.92058 5.93202 4.61586 5.93202Z" fill="#C1213D"/>
<path d="M9.65199 5.93202C10.3473 5.93202 10.9109 5.36289 10.9109 4.66083C10.9109 3.95878 10.3473 3.38965 9.65199 3.38965C8.95671 3.38965 8.39307 3.95878 8.39307 4.66083C8.39307 5.36289 8.95671 5.93202 9.65199 5.93202Z" fill="#C1213D"/>
<path d="M14.6876 5.93202C15.3829 5.93202 15.9466 5.36289 15.9466 4.66083C15.9466 3.95878 15.3829 3.38965 14.6876 3.38965C13.9924 3.38965 13.4287 3.95878 13.4287 4.66083C13.4287 5.36289 13.9924 5.93202 14.6876 5.93202Z" fill="#C1213D"/>
</g>
<defs>
<clipPath id="clip0_630_72">
<rect width="47" height="50" fill="white"/>
</clipPath>
</defs>
</svg>
